<svg xmlns="http://www.w3.org/2000/svg" viewBox="0 0 24 24"><path fill="none" d="M0 0h24v24H0z"/><clipPath id="a"><path d="M23 12c0 6.1-4.9 11-11 11S1 18.1 1 12 5.9 1 12 1s11 4.9 11 11z" overflow="visible"/></clipPath><g clip-path="url(#a)"><path d="M23 12c0 6.1-4.9 11-11 11S1 18.1 1 12 5.9 1 12 1s11 4.9 11 11z" fill="#91BFFF"/></g><path d="M1 12c.3-4.6 5.8-7.7 11 .2 4.5 6.9 10.1 5 10.9 1.3V23H1V12z" clip-path="url(#a)" fill="#4285F4"/><path d="M23 11.5c-1.5 1.6-4.5 2.2-7.6-2.7C11.6 2.4 7.5 1.5 3.5 5V1H23v10.5z" clip-path="url(#a)" fill="#C4E1FF"/><path d="M8 1.7c4.8-1.5 8.3 1.3 10.7 5 1.6 2.5 2.6 2.6 3.9 2.2V1H8v.7z" clip-path="url(#a)" fill="#F5F5F5"/><path d="M21.2 18c-2.6 3.2-8.2 3.9-12.7-2-3.8-5-7.2-2.6-6.5.6V23h19.2v-5z" clip-path="url(#a)" fill="#255FDB"/></svg>